<?xml version="1.0" encoding="UTF-8"?>
<svg xmlns="http://www.w3.org/2000/svg" width="24" height="24" viewBox="0 0 24 24" fill="none">
  <g clipPath="url(#clip0_2097_14944)">
    <path d="M10.3581 0.702271L8.14878 0.126243C7.67692 0.000522339 7.18491 -0.030964 6.70087 0.0335838C6.21683 0.0981316 5.75026 0.257448 5.32783 0.502424C4.9054 0.747401 4.53539 1.07323 4.23897 1.4613C3.94254 1.84936 3.72551 2.29204 3.60027 2.76403L3.04883 4.84686C4.86733 2.58351 7.48215 1.10082 10.3581 0.702271Z" fill="#333333"></path>
    <path d="M0.667261 13.8145L0.126356 15.8551C-0.126489 16.8076 0.00936453 17.8216 0.504036 18.6739C0.998707 19.5262 1.81168 20.1472 2.76414 20.4001L4.87156 20.9621C2.62131 19.1929 1.12019 16.6409 0.667261 13.8145Z" fill="#333333"></path>
    <path d="M21.2359 3.60039L18.8721 2.97168C20.0665 3.89047 21.0666 5.03735 21.8142 6.34574C22.5619 7.65413 23.0422 9.09799 23.2274 10.5935L23.8772 8.13486C24.1267 7.18335 23.9888 6.17172 23.4937 5.32172C22.9986 4.47173 22.1867 3.85272 21.2359 3.60039Z" fill="#333333"></path>
    <path d="M13.5894 23.2728L15.8548 23.884C16.8073 24.1368 17.8213 24.001 18.6736 23.5063C19.5259 23.0116 20.1469 22.1987 20.3998 21.2462L21.0391 18.8438C19.2367 21.2444 16.5593 22.8362 13.5894 23.2728Z" fill="#333333"></path>
    <path d="M12.002 1.59473C9.94348 1.59403 7.93102 2.20381 6.21911 3.34694C4.50721 4.49007 3.17275 6.1152 2.38452 8.01679C1.59629 9.91839 1.38969 12.011 1.79086 14.03C2.19202 16.0491 3.18293 17.9038 4.63825 19.3596C6.09358 20.8154 7.94795 21.8069 9.96683 22.2088C11.9857 22.6106 14.0784 22.4047 15.9803 21.6172C17.8821 20.8296 19.5077 19.4957 20.6514 17.7841C21.7951 16.0726 22.4056 14.0604 22.4056 12.0019C22.4056 9.24233 21.3096 6.59577 19.3587 4.64415C17.4077 2.69253 14.7615 1.59566 12.002 1.59473ZM6.10822 6.78601C6.2195 6.20902 6.49935 5.67798 6.9124 5.26002C7.32545 4.84206 7.85315 4.55596 8.42878 4.43787C9.00442 4.31979 9.60214 4.37502 10.1464 4.5966C10.6906 4.81818 11.157 5.19615 11.4864 5.68273C11.8159 6.1693 11.9937 6.74264 11.9973 7.33025C12.001 7.91786 11.8303 8.49336 11.5069 8.98399C11.1835 9.47462 10.722 9.85836 10.1805 10.0867C9.63906 10.315 9.04207 10.3777 8.46501 10.2668C8.08166 10.1931 7.71658 10.0446 7.39064 9.82974C7.0647 9.6149 6.78428 9.33795 6.56541 9.01471C6.34654 8.69146 6.19351 8.32825 6.11507 7.94584C6.03662 7.56343 6.03429 7.16931 6.10822 6.78601ZM10.4319 15.7777C10.3199 16.3544 10.0393 16.8851 9.62576 17.3024C9.2122 17.7198 8.68418 18.0052 8.10845 18.1225C7.53272 18.2399 6.93513 18.1839 6.39121 17.9617C5.84729 17.7394 5.38146 17.361 5.0526 16.8741C4.72373 16.3871 4.54661 15.8137 4.5436 15.2261C4.5406 14.6385 4.71185 14.0633 5.03572 13.573C5.35959 13.0828 5.82153 12.6996 6.36315 12.4718C6.90477 12.244 7.50176 12.1819 8.07865 12.2934C8.46205 12.3675 8.82709 12.5164 9.1529 12.7316C9.47871 12.9468 9.7589 13.2242 9.97746 13.5478C10.196 13.8714 10.3486 14.2349 10.4266 14.6175C10.5046 15.0001 10.5064 15.3943 10.4319 15.7777ZM11.6929 13.3717C11.4368 13.3221 11.2011 13.1979 11.0155 13.0145C10.83 12.8312 10.7028 12.597 10.6502 12.3415C10.5976 12.086 10.6218 11.8207 10.7198 11.5789C10.8178 11.3372 10.9852 11.1299 11.2009 10.9831C11.4166 10.8364 11.6709 10.7569 11.9317 10.7545C12.1926 10.7521 12.4483 10.8271 12.6666 10.9698C12.8849 11.1126 13.056 11.3169 13.1584 11.5568C13.2608 11.7967 13.2898 12.0616 13.2418 12.318C13.2098 12.4891 13.1443 12.6522 13.049 12.798C12.9537 12.9437 12.8305 13.0691 12.6865 13.167C12.5426 13.265 12.3807 13.3335 12.2101 13.3686C12.0396 13.4037 11.8638 13.4048 11.6929 13.3717ZM17.8922 17.2107C17.7809 17.7877 17.5011 18.3187 17.088 18.7367C16.675 19.1547 16.1473 19.4408 15.5716 19.5588C14.996 19.6769 14.3983 19.6217 13.854 19.4001C13.3098 19.1785 12.8435 18.8006 12.514 18.314C12.1846 17.8274 12.0068 17.2541 12.0031 16.6665C11.9995 16.0789 12.1701 15.5034 12.4935 15.0127C12.8169 14.5221 13.2785 14.1384 13.8199 13.91C14.3614 13.6817 14.9584 13.619 15.5354 13.73C15.9188 13.8036 16.2838 13.9521 16.6098 14.167C16.9357 14.3818 17.2161 14.6588 17.435 14.982C17.6539 15.3053 17.8069 15.6685 17.8854 16.0509C17.9638 16.4333 17.9661 16.8274 17.8922 17.2107ZM15.9253 11.7033C15.3483 11.592 14.8173 11.3122 14.3993 10.8991C13.9813 10.4861 13.6952 9.95839 13.5771 9.38275C13.4591 8.80712 13.5143 8.2094 13.7359 7.66515C13.9575 7.12091 14.3354 6.65458 14.822 6.32512C15.3086 5.99567 15.8819 5.81787 16.4695 5.81422C17.0571 5.81057 17.6326 5.98122 18.1233 6.3046C18.6139 6.62799 18.9976 7.08958 19.226 7.63103C19.4543 8.17247 19.517 8.76946 19.406 9.34652C19.3328 9.73019 19.1845 10.0956 18.9699 10.422C18.7552 10.7483 18.4783 11.0291 18.155 11.2484C17.8317 11.4676 17.4684 11.6209 17.0858 11.6996C16.7032 11.7783 16.3088 11.7807 15.9253 11.7068V11.7033Z" fill="#ED145B"></path>
  </g>
  <defs>
    <clipPath id="clip0_2097_14944">
      <rect width="24" height="24" fill="white"></rect>
    </clipPath>
  </defs>
</svg>
