<?xml version="1.0" encoding="UTF-8"?>
<svg xmlns="http://www.w3.org/2000/svg" width="21" height="24" viewBox="0 0 21 24" fill="none">
  <g clipPath="url(#clip0_2097_14955)">
    <path d="M10.4989 6.60805C7.51934 6.60805 5.11599 9.01194 5.11599 11.9922C5.11599 14.9724 7.51934 17.3763 10.4989 17.3763C13.4785 17.3763 15.8819 14.9724 15.8819 11.9922C15.8819 9.01194 13.4785 6.60805 10.4989 6.60805ZM10.4989 15.4926C8.57344 15.4926 6.99931 13.9228 6.99931 11.9922C6.99931 10.0616 8.56875 8.4918 10.4989 8.4918C12.4291 8.4918 13.9985 10.0616 13.9985 11.9922C13.9985 13.9228 12.4244 15.4926 10.4989 15.4926ZM17.3576 6.38781C17.3576 7.08602 16.7954 7.64364 16.102 7.64364C15.404 7.64364 14.8465 7.08133 14.8465 6.38781C14.8465 5.6943 15.4087 5.13198 16.102 5.13198C16.7954 5.13198 17.3576 5.6943 17.3576 6.38781ZM20.9228 7.66239C20.8432 5.98014 20.459 4.49001 19.2269 3.2623C17.9994 2.03458 16.5096 1.65034 14.8278 1.56599C13.0944 1.46759 7.89881 1.46759 6.16541 1.56599C4.48822 1.64565 2.99842 2.0299 1.7663 3.25761C0.534173 4.48533 0.154697 5.97545 0.070369 7.6577C-0.0280136 9.3915 -0.0280136 14.5882 0.070369 16.322C0.150012 18.0042 0.534173 19.4944 1.7663 20.7221C2.99842 21.9498 4.48353 22.334 6.16541 22.4184C7.89881 22.5168 13.0944 22.5168 14.8278 22.4184C16.5096 22.3387 17.9994 21.9545 19.2269 20.7221C20.4543 19.4944 20.8385 18.0042 20.9228 16.322C21.0212 14.5882 21.0212 9.39618 20.9228 7.66239ZM18.6834 18.1823C18.318 19.1007 17.6106 19.8083 16.6877 20.1785C15.3056 20.7268 12.0262 20.6002 10.4989 20.6002C8.97165 20.6002 5.68755 20.7221 4.31019 20.1785C3.39195 19.813 2.68454 19.1054 2.31443 18.1823C1.7663 16.8 1.89279 13.5198 1.89279 11.9922C1.89279 10.4646 1.77098 7.17974 2.31443 5.80207C2.67985 4.88363 3.38727 4.17605 4.31019 3.80587C5.69223 3.25761 8.97165 3.38413 10.4989 3.38413C12.0262 3.38413 15.3103 3.2623 16.6877 3.80587C17.6059 4.17137 18.3133 4.87894 18.6834 5.80207C19.2316 7.18442 19.1051 10.4646 19.1051 11.9922C19.1051 13.5198 19.2316 16.8046 18.6834 18.1823Z" fill="url(#paint0_radial_2097_14955)"></path>
    <path d="M10.4989 6.60805C7.51934 6.60805 5.11599 9.01194 5.11599 11.9922C5.11599 14.9724 7.51934 17.3763 10.4989 17.3763C13.4785 17.3763 15.8819 14.9724 15.8819 11.9922C15.8819 9.01194 13.4785 6.60805 10.4989 6.60805ZM10.4989 15.4926C8.57344 15.4926 6.99931 13.9228 6.99931 11.9922C6.99931 10.0616 8.56875 8.4918 10.4989 8.4918C12.4291 8.4918 13.9985 10.0616 13.9985 11.9922C13.9985 13.9228 12.4244 15.4926 10.4989 15.4926ZM17.3576 6.38781C17.3576 7.08602 16.7954 7.64364 16.102 7.64364C15.404 7.64364 14.8465 7.08133 14.8465 6.38781C14.8465 5.6943 15.4087 5.13198 16.102 5.13198C16.7954 5.13198 17.3576 5.6943 17.3576 6.38781ZM20.9228 7.66239C20.8432 5.98014 20.459 4.49001 19.2269 3.2623C17.9994 2.03458 16.5096 1.65034 14.8278 1.56599C13.0944 1.46759 7.89881 1.46759 6.16541 1.56599C4.48822 1.64565 2.99842 2.0299 1.7663 3.25761C0.534173 4.48533 0.154697 5.97545 0.070369 7.6577C-0.0280136 9.3915 -0.0280136 14.5882 0.070369 16.322C0.150012 18.0042 0.534173 19.4944 1.7663 20.7221C2.99842 21.9498 4.48353 22.334 6.16541 22.4184C7.89881 22.5168 13.0944 22.5168 14.8278 22.4184C16.5096 22.3387 17.9994 21.9545 19.2269 20.7221C20.4543 19.4944 20.8385 18.0042 20.9228 16.322C21.0212 14.5882 21.0212 9.39618 20.9228 7.66239ZM18.6834 18.1823C18.318 19.1007 17.6106 19.8083 16.6877 20.1785C15.3056 20.7268 12.0262 20.6002 10.4989 20.6002C8.97165 20.6002 5.68755 20.7221 4.31019 20.1785C3.39195 19.813 2.68454 19.1054 2.31443 18.1823C1.7663 16.8 1.89279 13.5198 1.89279 11.9922C1.89279 10.4646 1.77098 7.17974 2.31443 5.80207C2.67985 4.88363 3.38727 4.17605 4.31019 3.80587C5.69223 3.25761 8.97165 3.38413 10.4989 3.38413C12.0262 3.38413 15.3103 3.2623 16.6877 3.80587C17.6059 4.17137 18.3133 4.87894 18.6834 5.80207C19.2316 7.18442 19.1051 10.4646 19.1051 11.9922C19.1051 13.5198 19.2316 16.8046 18.6834 18.1823Z" fill="url(#paint1_radial_2097_14955)"></path>
  </g>
  <defs>
    <radialGradient id="paint0_radial_2097_14955" cx="0" cy="0" r="1" gradientUnits="userSpaceOnUse" gradientTransform="translate(17.7416 25.3272) rotate(-115.776) scale(28.6374 42.5948)">
      <stop offset="0.24392" stopColor="#FF1B90"></stop>
      <stop offset="0.436673" stopColor="#F80261"></stop>
      <stop offset="0.688476" stopColor="#ED00C0"></stop>
      <stop offset="0.776787" stopColor="#C500E9"></stop>
      <stop offset="0.893155" stopColor="#7017FF"></stop>
    </radialGradient>
    <radialGradient id="paint1_radial_2097_14955" cx="0" cy="0" r="1" gradientUnits="userSpaceOnUse" gradientTransform="translate(7.60908 21.7677) rotate(-57.4396) scale(12.4083 12.9064)">
      <stop stopColor="#FFD600"></stop>
      <stop offset="0.484375" stopColor="#FF6930"></stop>
      <stop offset="0.734375" stopColor="#FE3B36"></stop>
      <stop offset="1" stopColor="#FE3B36" stop-opacity="0"></stop>
    </radialGradient>
    <clipPath id="clip0_2097_14955">
      <rect width="21" height="24" fill="white"></rect>
    </clipPath>
  </defs>
</svg>
