<?xml version="1.0" encoding="UTF-8"?>
<svg xmlns="http://www.w3.org/2000/svg" width="24" height="24" viewBox="0 0 24 24" fill="none">
  <path fill-rule="evenodd" clip-rule="evenodd" d="M20.4996 3.48772C18.2736 1.25791 15.2414 0 12.0819 0H12.0456C5.45988 4.69195e-05 0.100008 5.33456 0.100008 11.892L0.100055 11.8927C0.100449 13.9792 0.652385 16.0289 1.70046 17.8361L0 24L6.33586 22.3452C8.08704 23.2949 10.0493 23.7933 12.0436 23.795H12.0438H12.0463C18.647 23.795 24 18.4683 24 11.9C24 8.74585 22.7391 5.71944 20.4989 3.4903L20.4996 3.48772ZM12.0497 21.7919C10.2696 21.7919 8.51995 21.3124 6.99074 20.4088L6.62674 20.1929L2.86684 21.173L3.86678 17.5261L3.63178 17.1519C2.63467 15.5751 2.10337 13.7463 2.10337 11.8825C2.10337 6.42239 6.55313 1.9945 12.0401 1.9945C14.6811 1.9945 17.2153 3.04114 19.0787 4.90258C20.9426 6.75822 21.9898 9.2744 21.99 11.898C21.99 17.3614 17.5388 21.7919 12.0484 21.7919H12.0497ZM17.4996 14.3827C17.1996 14.2324 15.7327 13.516 15.4607 13.4165C15.1887 13.3169 14.9887 13.2662 14.7857 13.5667C14.5827 13.8672 14.0137 14.533 13.8397 14.7329C13.6657 14.9329 13.4907 14.9588 13.1947 14.8086C12.8987 14.6583 11.9317 14.3449 10.7948 13.3319C10.1398 12.731 9.57727 12.0375 9.12509 11.2737C8.95007 10.9751 9.10604 10.815 9.25806 10.6697C9.41008 10.5244 9.55808 10.3234 9.70505 10.1493C9.8293 9.9993 9.93033 9.83172 10.0048 9.65205C10.0445 9.57015 10.0631 9.47971 10.0589 9.38887C10.0547 9.29803 10.0279 9.20966 9.98084 9.13171C9.89984 8.98251 9.29979 7.5197 9.05979 6.92368C8.81979 6.32766 8.57083 6.42619 8.38685 6.41221C8.20286 6.39828 8.01383 6.4033 7.81683 6.4033C7.66497 6.40684 7.5155 6.44165 7.37783 6.50553C7.24017 6.56942 7.11729 6.66099 7.01696 6.77448C6.74787 7.06998 5.97492 7.79136 5.97492 9.25413C5.97492 10.7169 7.04388 12.1279 7.19387 12.3289C7.34391 12.5299 9.29979 15.53 12.2998 16.8167C13.0117 17.1211 13.5677 17.3043 13.9997 17.4455C14.3854 17.5611 14.7859 17.6199 15.1887 17.62C15.42 17.62 15.6517 17.6005 15.8795 17.5619C16.4535 17.4783 17.6454 16.8445 17.8964 16.1509C18.1474 15.4574 18.1465 14.8574 18.0714 14.739C17.9964 14.6205 17.8024 14.534 17.5014 14.3817L17.4996 14.3827Z" fill="#25D366"></path>
</svg>
