<?xml version="1.0" encoding="UTF-8"?>
<svg xmlns="http://www.w3.org/2000/svg" width="26" height="24" viewBox="0 0 26 24" fill="none">
  <path d="M24.8106 5.81639C24.5271 4.7078 23.6917 3.8347 22.6311 3.53841C20.7086 3 12.9998 3 12.9998 3C12.9998 3 5.29095 3 3.36844 3.53841C2.30781 3.83475 1.47247 4.7078 1.18895 5.81639C0.673828 7.82578 0.673828 12.0182 0.673828 12.0182C0.673828 12.0182 0.673828 16.2106 1.18895 18.22C1.47247 19.3286 2.30781 20.1653 3.36844 20.4616C5.29095 21 12.9998 21 12.9998 21C12.9998 21 20.7086 21 22.6311 20.4616C23.6917 20.1653 24.5271 19.3286 24.8106 18.22C25.3257 16.2106 25.3257 12.0182 25.3257 12.0182C25.3257 12.0182 25.3257 7.82578 24.8106 5.81639ZM10.4785 15.8246V8.2118L16.9216 12.0183L10.4785 15.8246Z" fill="#C21F1F"></path>
</svg>
